<?xml version='1.0' encoding='UTF-8' standalone='no'?>
<!-- Created with Fritzing (http://www.fritzing.org/) -->
<svg xmlns="http://www.w3.org/2000/svg" x="0in" width="0.3in" y="0in" viewBox="0 0 300 330" baseProfile="tiny"  height="0.33in" version="1.2">
    <desc >
        <referenceFile >dip_icon.svg</referenceFile>
    </desc>
    <g gorn="0.1"  id="icon">
        <rect gorn="0.1.0" x="0" width="300" y="30"  id="middle" height="270" fill="#303030"/>
        <rect gorn="0.1.1" x="0" width="300" y="30"  id="top" height="24.6" fill="#3D3D3D"/>
        <rect gorn="0.1.2" x="0" width="300" y="275.4"  id="bottom" height="24.6" fill="#000000"/>
        <polygon gorn="0.1.3"  points="300,30,292.5,54.6,292.5,275.4,300,300" id="right" fill="#141414"/>
        <polygon gorn="0.1.4"  points="0,30,7.5,54.6,7.5,275.4,0,300" id="left" fill="#1F1F1F"/>
        <polygon gorn="0.1.5"  points="50,115,7.5,114.6,5.6,135.8,5.6,165,50,165" id="left-upper-rect" fill="#1C1C1C"/>
        <polygon gorn="0.1.6"  points="7.5,215.5,50,215.5,50,165,5.6,165,5.6,194.2" id="left-lower-rect" fill="#383838"/>
        <path gorn="0.1.7"  d="M5.6,135.8l0,58.3c14.7,-1.7,26.2,-14,26.2,-29.2C31.8,149.7,20.4,137.5,5.6,135.8z" id="slot" fill="#262626"/>
        <path gorn="0.1.8"  d="M7.5,54.6L7.5,114.5c23.8,4.5,41.9,25.3,41.9,50.4c0,25.1,-18,46,-41.9,50.5L7.5,215.5l50,0L57.5,54.6L7.5,54.6z" id="cover" fill="#303030"/>
        <circle r="20.6"  cy="234.7" cx="65" fill="#212121"/>
        <text gorn="0.1.10" x="65" y="165"  id="label" font-family="OCRA" font-size="80" fill="#dddddd" stroke="none" text-anchor="start">Atmega 168</text>
        <rect gorn="0.1.11" x="35" width="30" y="286.6"  id="connector0pin" height="43.4" fill="#8C8C8C"/>
        <rect gorn="0.1.12" x="35" width="30" y="300"  id="connector0terminal" height="30" fill="#8C8C8C"/>
        <polygon  points="35,286.6,35,306.6,65,306.6,85,297.4,85,286.6" fill="#8C8C8C"/>
        <rect gorn="0.1.14" x="35" width="30"  id="connector5pin" height="43.4" fill="#8C8C8C"/>
        <rect gorn="0.1.15" x="35" width="30"  id="connector5terminal" height="30" fill="#8C8C8C"/>
        <polygon  points="85,43.4,85,32.6,65,23.4,35,23.4,35,43.4" fill="#8C8C8C"/>
        <rect gorn="0.1.17" x="235" width="30" y="286.6"  id="connector2pin" height="43.4" fill="#8C8C8C"/>
        <rect gorn="0.1.18" x="235" width="30" y="300"  id="connector2terminal" height="30" fill="#8C8C8C"/>
        <polygon  points="215,286.6,215,297.4,235,306.6,265,306.6,265,286.6" fill="#8C8C8C"/>
        <rect gorn="0.1.20" x="235" width="30" y="0"  id="connector3pin" height="43.4" fill="#8C8C8C"/>
        <rect gorn="0.1.21" x="235" width="30" y="0"  id="connector3terminal" height="30" fill="#8C8C8C"/>
        <polygon  points="265,43.4,265,23.4,235,23.4,215,32.6,215,43.4" fill="#8C8C8C"/>
        <rect gorn="0.1.23" x="135" width="30" y="286.6"  id="connector1pin" height="43.4" fill="#8C8C8C"/>
        <rect gorn="0.1.24" x="135" width="30" y="300"  id="connector1terminal" height="30" fill="#8C8C8C"/>
        <polygon  points="115,286.6,115,297.4,135,306.6,165,306.6,185,297.4,185,286.6" fill="#8C8C8C"/>
        <rect gorn="0.1.26" x="135" width="30" y="0"  id="connector4pin" height="43.4" fill="#8C8C8C"/>
        <rect gorn="0.1.27" x="135" width="30"  id="connector4terminal" height="30" fill="#8C8C8C"/>
        <polygon  points="185,43.4,185,32.6,165,23.4,135,23.4,115,32.6,115,43.4" fill="#8C8C8C"/>
    </g>
</svg>
