<?xml version='1.0' encoding='UTF-8' standalone='no'?>
<!-- Created with Fritzing (http://www.fritzing.org/) -->
<svg xmlns="http://www.w3.org/2000/svg"  baseProfile="tiny" width="1in" height="0.33in" viewBox="0 0 1000 330" x="0in" version="1.2" y="0in">
    <desc >
        <referenceFile >generic_ic_dip_20_300mil_bread.svg</referenceFile>
    </desc>
    <g  id="breadboard" gorn="0.1">
        <rect fill="#303030"  width="1000" height="270" x="0" y="30" id="middle" gorn="0.1.0"/>
        <rect fill="#3D3D3D"  width="1000" height="24.6" x="0" y="30" id="top" gorn="0.1.1"/>
        <rect fill="#000000"  width="1000" height="24.6" x="0" y="275.4" id="bottom" gorn="0.1.2"/>
        <polygon fill="#141414"  points="1000,30,992.5,54.6,992.5,275.4,1000,300" id="right" gorn="0.1.3"/>
        <polygon fill="#1F1F1F"  points="0,30,7.5,54.6,7.5,275.4,0,300" id="left" gorn="0.1.4"/>
        <polygon fill="#1C1C1C"  points="50,115,7.5,114.6,5.6,135.8,5.6,165,50,165" id="left-upper-rect" gorn="0.1.5"/>
        <polygon fill="#383838"  points="7.5,215.5,50,215.5,50,165,5.6,165,5.6,194.2" id="left-lower-rect" gorn="0.1.6"/>
        <path fill="#262626"  d="M5.6,135.8l0,58.3c14.7,-1.7,26.2,-14,26.2,-29.2C31.8,149.7,20.4,137.5,5.6,135.8z" id="slot" gorn="0.1.7"/>
        <path fill="#303030"  d="M7.5,54.6L7.5,114.5c23.8,4.5,41.9,25.3,41.9,50.4c0,25.1,-18,46,-41.9,50.5L7.5,215.5l50,0L57.5,54.6L7.5,54.6z" id="cover" gorn="0.1.8"/>
        <circle fill="#212121" cy="234.7" r="20.6"  cx="65"/>
        <text fill="#e6e6e6" text-anchor="start"  font-family="OCRA" stroke="none" font-size="80" x="65" y="165" id="label" gorn="0.1.10">ADC0844CCN</text>
        <rect fill="#8C8C8C"  width="30" height="43.4" x="35" y="286.6" id="connector0pin" gorn="0.1.11"/>
        <rect fill="#8C8C8C"  width="30" height="30" x="35" y="300" id="connector0terminal" gorn="0.1.12"/>
        <polygon fill="#8C8C8C"  points="35,286.6,35,306.6,65,306.6,85,297.4,85,286.6"/>
        <rect fill="#8C8C8C"  width="30" height="43.4" x="35" id="connector19pin" gorn="0.1.14"/>
        <rect fill="#8C8C8C"  width="30" height="30" x="35" id="connector19terminal" gorn="0.1.15"/>
        <polygon fill="#8C8C8C"  points="85,43.4,85,32.6,65,23.4,35,23.4,35,43.4"/>
        <rect fill="#8C8C8C"  width="30" height="43.4" x="935" y="286.6" id="connector9pin" gorn="0.1.17"/>
        <rect fill="#8C8C8C"  width="30" height="30" x="935" y="300" id="connector9terminal" gorn="0.1.18"/>
        <polygon fill="#8C8C8C"  points="915,286.6,915,297.4,935,306.6,965,306.6,965,286.6"/>
        <rect fill="#8C8C8C"  width="30" height="43.4" x="935" y="0" id="connector10pin" gorn="0.1.20"/>
        <rect fill="#8C8C8C"  width="30" height="30" x="935" y="0" id="connector10terminal" gorn="0.1.21"/>
        <polygon fill="#8C8C8C"  points="965,43.4,965,23.4,935,23.4,915,32.6,915,43.4"/>
        <rect fill="#8C8C8C"  width="30" height="43.4" x="135" y="0" id="connector18pin" gorn="0.1.23"/>
        <rect fill="#8C8C8C"  width="30" height="30" x="135" id="connector18terminal" gorn="0.1.24"/>
        <polygon fill="#8C8C8C"  points="185,43.4,185,32.6,165,23.4,135,23.4,115,32.6,115,43.4"/>
        <rect fill="#8C8C8C"  width="30" height="43.4" x="235" y="0" id="connector17pin" gorn="0.1.26"/>
        <rect fill="#8C8C8C"  width="30" height="30" x="235" id="connector17terminal" gorn="0.1.27"/>
        <polygon fill="#8C8C8C"  points="285,43.4,285,32.6,265,23.4,235,23.4,215,32.6,215,43.4"/>
        <rect fill="#8C8C8C"  width="30" height="43.4" x="335" y="0" id="connector16pin" gorn="0.1.29"/>
        <rect fill="#8C8C8C"  width="30" height="30" x="335" id="connector16terminal" gorn="0.1.30"/>
        <polygon fill="#8C8C8C"  points="385,43.4,385,32.6,365,23.4,335,23.4,315,32.6,315,43.4"/>
        <rect fill="#8C8C8C"  width="30" height="43.4" x="435" y="0" id="connector15pin" gorn="0.1.32"/>
        <rect fill="#8C8C8C"  width="30" height="30" x="435" id="connector15terminal" gorn="0.1.33"/>
        <polygon fill="#8C8C8C"  points="485,43.4,485,32.6,465,23.4,435,23.4,415,32.6,415,43.4"/>
        <rect fill="#8C8C8C"  width="30" height="43.4" x="535" y="0" id="connector14pin" gorn="0.1.35"/>
        <rect fill="#8C8C8C"  width="30" height="30" x="535" id="connector14terminal" gorn="0.1.36"/>
        <polygon fill="#8C8C8C"  points="585,43.4,585,32.6,565,23.4,535,23.4,515,32.6,515,43.4"/>
        <rect fill="#8C8C8C"  width="30" height="43.4" x="635" y="0" id="connector13pin" gorn="0.1.38"/>
        <rect fill="#8C8C8C"  width="30" height="30" x="635" id="connector13terminal" gorn="0.1.39"/>
        <polygon fill="#8C8C8C"  points="685,43.4,685,32.6,665,23.4,635,23.4,615,32.6,615,43.4"/>
        <rect fill="#8C8C8C"  width="30" height="43.4" x="735" y="0" id="connector12pin" gorn="0.1.41"/>
        <rect fill="#8C8C8C"  width="30" height="30" x="735" id="connector12terminal" gorn="0.1.42"/>
        <polygon fill="#8C8C8C"  points="785,43.4,785,32.6,765,23.4,735,23.4,715,32.6,715,43.4"/>
        <rect fill="#8C8C8C"  width="30" height="43.4" x="835" y="0" id="connector11pin" gorn="0.1.44"/>
        <rect fill="#8C8C8C"  width="30" height="30" x="835" id="connector11terminal" gorn="0.1.45"/>
        <polygon fill="#8C8C8C"  points="885,43.4,885,32.6,865,23.4,835,23.4,815,32.6,815,43.4"/>
        <rect fill="#8C8C8C"  width="30" height="43.4" x="135" y="286.6" id="connector1pin" gorn="0.1.47"/>
        <rect fill="#8C8C8C"  width="30" height="30" x="135" y="300" id="connector1terminal" gorn="0.1.48"/>
        <polygon fill="#8C8C8C"  points="115,286.6,115,297.4,135,306.6,165,306.6,185,297.4,185,286.6"/>
        <rect fill="#8C8C8C"  width="30" height="43.4" x="235" y="286.6" id="connector2pin" gorn="0.1.50"/>
        <rect fill="#8C8C8C"  width="30" height="30" x="235" y="300" id="connector2terminal" gorn="0.1.51"/>
        <polygon fill="#8C8C8C"  points="215,286.6,215,297.4,235,306.6,265,306.6,285,297.4,285,286.6"/>
        <rect fill="#8C8C8C"  width="30" height="43.4" x="335" y="286.6" id="connector3pin" gorn="0.1.53"/>
        <rect fill="#8C8C8C"  width="30" height="30" x="335" y="300" id="connector3terminal" gorn="0.1.54"/>
        <polygon fill="#8C8C8C"  points="315,286.6,315,297.4,335,306.6,365,306.6,385,297.4,385,286.6"/>
        <rect fill="#8C8C8C"  width="30" height="43.4" x="435" y="286.6" id="connector4pin" gorn="0.1.56"/>
        <rect fill="#8C8C8C"  width="30" height="30" x="435" y="300" id="connector4terminal" gorn="0.1.57"/>
        <polygon fill="#8C8C8C"  points="415,286.6,415,297.4,435,306.6,465,306.6,485,297.4,485,286.6"/>
        <rect fill="#8C8C8C"  width="30" height="43.4" x="535" y="286.6" id="connector5pin" gorn="0.1.59"/>
        <rect fill="#8C8C8C"  width="30" height="30" x="535" y="300" id="connector5terminal" gorn="0.1.60"/>
        <polygon fill="#8C8C8C"  points="515,286.6,515,297.4,535,306.6,565,306.6,585,297.4,585,286.6"/>
        <rect fill="#8C8C8C"  width="30" height="43.4" x="635" y="286.6" id="connector6pin" gorn="0.1.62"/>
        <rect fill="#8C8C8C"  width="30" height="30" x="635" y="300" id="connector6terminal" gorn="0.1.63"/>
        <polygon fill="#8C8C8C"  points="615,286.6,615,297.4,635,306.6,665,306.6,685,297.4,685,286.6"/>
        <rect fill="#8C8C8C"  width="30" height="43.4" x="735" y="286.6" id="connector7pin" gorn="0.1.65"/>
        <rect fill="#8C8C8C"  width="30" height="30" x="735" y="300" id="connector7terminal" gorn="0.1.66"/>
        <polygon fill="#8C8C8C"  points="715,286.6,715,297.4,735,306.6,765,306.6,785,297.4,785,286.6"/>
        <rect fill="#8C8C8C"  width="30" height="43.4" x="835" y="286.6" id="connector8pin" gorn="0.1.68"/>
        <rect fill="#8C8C8C"  width="30" height="30" x="835" y="300" id="connector8terminal" gorn="0.1.69"/>
        <polygon fill="#8C8C8C"  points="815,286.6,815,297.4,835,306.6,865,306.6,885,297.4,885,286.6"/>
    </g>
</svg>
